<?xml version="1.0" encoding="UTF-8"?>
<svg width="800px" height="486px" viewBox="0 0 800 486" version="1.1" xmlns="http://www.w3.org/2000/svg" xmlns:xlink="http://www.w3.org/1999/xlink">
    <!-- Generator: Sketch 48 (47235) - http://www.bohemiancoding.com/sketch -->
    <title>Page</title>
    <desc>Created with Sketch.</desc>
    <defs>
        <linearGradient x1="50%" y1="0%" x2="50%" y2="100%" id="linearGradient-1">
            <stop stop-color="#FFFFFF" offset="0%"></stop>
            <stop stop-color="#E8E8E8" offset="98.2581314%"></stop>
        </linearGradient>
        <rect id="path-2" x="0" y="0" width="800" height="486"></rect>
    </defs>
    <g id="Page-1" stroke="none" stroke-width="1" fill="none" fill-rule="evenodd">
        <g id="Page">
            <mask id="mask-3" fill="white">
                <use xlink:href="#path-2"></use>
            </mask>
            <use id="Background" fill="url(#linearGradient-1)" xlink:href="#path-2"></use>
            <path d="M154.5,138.5 L777.500803,138.5" id="Line" stroke="#979797" stroke-width="2" stroke-linecap="square" mask="url(#mask-3)"></path>
            <g id="QLessLogo" mask="url(#mask-3)" fill-rule="nonzero">
                <g transform="translate(630.000000, 11.000000)">
                    <path d="M136.93987,71.9546754 C134.112357,71.7787232 131.484654,71.0717896 129.09382,69.8438568 C126.444847,68.483337 124.712285,66.8355257 123.725634,64.738236 C123.100137,63.4086588 123,62.9599828 123,61.4868992 C123,60.0138155 123.100137,59.5651395 123.725634,58.2355623 C124.653086,56.264112 126.368305,54.5740164 128.734503,53.3000667 C131.644087,51.7335506 134.753676,51 138.484689,51 C141.173331,51 143.163731,51.3169285 145.506562,52.1180807 C151.086665,54.0262447 154.459963,58.0914985 153.949124,62.2924538 C153.640249,64.8325501 152.165501,67.0294067 149.546546,68.8507803 C146.306884,71.1038301 141.658461,72.2483175 136.93987,71.9546754 Z" id="dot-4" fill="#1999D4"></path>
                    <path d="M105.296854,67.9530589 C100.209521,67.4694995 96.1868028,65.2727147 94.6147564,62.1196146 C94.1088101,61.104831 93.9544883,60.3587245 94.0110642,59.2008642 C94.0965017,57.4520117 94.735816,56.1697688 96.2523273,54.7056625 C98.2085392,52.8170566 101.043122,51.5910497 104.521598,51.1290542 C105.666211,50.9770329 108.011776,50.9550995 109.148342,51.0857906 C114.364454,51.6855803 118.554062,54.2685337 119.67414,57.5751025 C121.263158,62.2660318 116.896291,66.7653475 109.721968,67.8290959 C108.657089,67.9869911 106.337444,68.0519676 105.296854,67.9530589 Z" id="Dot-3" fill="#80BD40"></path>
                    <path d="M81.0037335,64.9849415 C79.1636471,64.8342235 77.4438989,64.4585013 76.1196443,63.9178813 C69.5339575,61.2293241 69.2498136,55.2419172 75.569484,52.3250319 C79.3972059,50.5583227 84.5970075,50.5583227 88.4247344,52.3250319 C90.8753055,53.4561082 92.4534126,55.11555 92.8878399,57.018157 C93.7018438,60.5831225 90.0024277,64.0166231 84.4772232,64.8242219 C83.6530621,64.944693 81.6460574,65.0375549 81.0037335,64.9849415 Z" id="dot-2" fill="#F79B26"></path>
                    <path d="M57.9030546,62.9039654 C55.0881859,62.4207679 52.8759504,61.181573 51.75283,59.4588879 C50.5943516,57.681979 50.7826127,55.5981586 52.2504803,53.9504954 C53.3522874,52.7137307 55.1106666,51.7622131 57.1286462,51.3107555 C61.0793438,50.4269164 65.4219924,51.4767193 67.6157146,53.8459281 C69.0621441,55.4080658 69.38062,57.1344556 68.5449249,58.8829814 C67.6622199,60.7298695 65.568292,62.1338433 62.7283781,62.7829653 C61.7573197,63.00492 58.9074412,63.0763877 57.9030546,62.9039654 Z" id="dot-1" fill="#E41990"></path>
                    <path d="M154.38083,12.9148718 C154.358328,12.8570959 154.330167,12.1066175 154.318258,11.2471425 L154.296591,9.68446061 L153.832721,9.66368655 C153.050358,9.62864882 152.975304,9.59575637 153.005278,9.30105781 L153.031491,9.04336035 L155.324148,9.02872403 C157.00372,9.01800163 157.638008,9.03943121 157.696126,9.10886157 C157.739747,9.16098702 157.982208,9.77383479 158.234916,10.4707452 C158.487632,11.1676557 158.729621,11.7393135 158.772668,11.7410958 C158.815723,11.7428829 159.049522,11.2087414 159.292211,10.5541235 C159.922247,8.85470699 159.816072,9.00329159 160.400413,9.00329159 C160.777472,9.00329159 160.911733,9.03423429 160.950428,9.13005233 C161.028991,9.32458138 161.00864,12.7954348 160.92823,12.9159409 C160.885647,12.97976 160.743289,13.0117028 160.571075,12.9960784 L160.284732,12.9700994 L160.261556,11.6678645 C160.248812,10.9516353 160.205512,10.3656296 160.165332,10.3656296 C160.125153,10.3656296 159.930319,10.7893568 159.732381,11.3072456 C159.038204,13.123437 159.1314,12.9700994 158.72165,12.9700994 L158.361679,12.9700994 L157.868264,11.6544367 C157.596892,10.9308228 157.355907,10.3207758 157.332756,10.2987773 C157.309605,10.2767787 157.29008,10.8327649 157.289371,11.5343017 C157.288528,12.2358393 157.256217,12.8575767 157.217269,12.9159409 C157.174686,12.97976 157.032328,13.0117028 156.860114,12.9960784 L156.573772,12.9700994 L156.550983,11.2582535 L156.528194,9.54640848 L156.340133,9.59430588 C156.236698,9.62064949 155.915633,9.64269613 155.626659,9.64329796 L155.101246,9.64439585 L155.078449,11.3072496 L155.055651,12.9701034 L154.738702,12.9950134 C154.534312,13.0110769 154.407212,12.9826161 154.38083,12.9148758 L154.38083,12.9148718 Z" id="TM" fill="#979EA5"></path>
                    <path d="M135.862622,40.8729275 C134.569282,40.7160534 132.656174,40.3141815 131.504004,39.9573424 C130.605947,39.6792055 129.147234,39.0828563 129.00203,38.9344873 C128.938106,38.8691774 130.404501,32.5279804 130.507974,32.4222584 C130.530315,32.3994329 130.821912,32.5088131 131.155977,32.6653262 C133.662772,33.8397904 136.751473,34.5606209 139.265007,34.5577828 C140.77319,34.5560823 141.879112,34.3299661 142.913347,33.811855 C144.391203,33.0715071 145.071524,31.9098168 144.982972,30.2778671 C144.933035,29.3576521 144.688391,28.788956 144.046808,28.1016852 C143.190055,27.1839171 141.769006,26.38175 139.46997,25.5181053 C136.129492,24.2632375 134.409894,23.340759 132.739447,21.9075127 C131.000566,20.4155516 129.96861,18.6866396 129.54651,16.5581527 C129.333414,15.4836195 129.411644,13.2781937 129.702806,12.1518206 C130.141353,10.4552453 131.178474,8.69440377 132.442865,7.49969495 C135.044583,5.04135608 138.763028,3.8670895 143.487243,4.0119343 C145.915496,4.08638517 147.968495,4.43473175 149.928301,5.10483316 C151.258322,5.55959701 151.588107,5.72023233 151.542622,5.89114866 C150.760106,8.83129131 149.886366,11.9996653 149.844717,12.0481518 C149.814547,12.0832805 149.435956,11.9609303 149.00341,11.7762624 C146.230885,10.5925894 142.530337,10.145384 140.329642,10.728052 C138.628827,11.1783677 137.518928,12.2404805 137.303085,13.6242869 C137.167367,14.4944237 137.457455,15.4875784 138.048076,16.1749062 C138.667843,16.8961404 140.24705,17.7943366 142.462428,18.6856285 C143.11626,18.9486778 144.075487,19.334512 144.594043,19.5430374 C147.542574,20.7287176 149.910797,22.3748663 151.240277,24.1628223 C153.417992,27.0915187 153.595924,31.8396013 151.654236,35.2091056 C149.848858,38.342072 146.357339,40.324486 141.654891,40.8865316 C140.340783,41.0435967 137.209057,41.0362409 135.862622,40.8729275 Z" id="S2" fill="#5B666F"></path>
                    <path d="M110.21333,40.9422209 C107.878621,40.6781952 105.515009,40.0804376 103.635265,39.2786316 C103.13643,39.0658549 103,38.9708619 103,38.8363262 C103,38.6886656 104.465134,32.4837964 104.51416,32.4238341 C104.524045,32.4117407 104.953157,32.5865105 105.467737,32.8122118 C109.112846,34.4110008 113.122523,34.9784911 115.828251,34.2785363 C118.020489,33.7114172 119.296715,31.9908351 118.994919,30.0093007 C118.697878,28.0590148 117.249007,26.9585562 112.713404,25.2383303 C109.533711,24.0323623 107.547529,22.8246323 105.947285,21.1240943 C104.100541,19.1616028 103.321624,17.065167 103.432431,14.3554114 C103.544016,11.6265376 104.453068,9.54462338 106.358108,7.65501025 C108.780951,5.25179265 112.338729,3.99728127 116.723663,4.00000442 C118.730985,4.00125289 120.635583,4.22550458 122.41266,4.66984445 C123.432847,4.92493235 125.183391,5.53072704 125.427439,5.71314096 C125.566328,5.81695698 125.526466,6.00196418 124.724582,8.97503413 C124.257027,10.7085432 123.848949,12.126869 123.817743,12.126869 C123.786529,12.126869 123.525357,12.0181931 123.237349,11.8853667 C121.787461,11.2166913 119.6137,10.6865192 117.701815,10.5352691 C114.623576,10.2917483 112.396124,11.1036719 111.598428,12.7600033 C111.267558,13.4470101 111.195679,14.2211413 111.397021,14.9291097 C111.845157,16.5048482 113.190927,17.4192824 117.631584,19.1654127 C118.578333,19.5376886 119.832469,20.0838302 120.418552,20.3790616 C125.072633,22.7234892 127.147424,25.8710323 126.991879,30.3510839 C126.913262,32.6155687 126.30744,34.4471476 125.087437,36.108798 C123.285055,38.5636551 120.487898,40.1080278 116.606963,40.7910563 C115.755749,40.9408669 115.186986,40.9755842 113.246207,40.9961998 C111.961333,41.0098474 110.596538,40.9855569 110.21333,40.9422209 Z" id="S1" fill="#5B666F"></path>
                    <path d="M77,22.5000004 L77,5 L87.6373626,5 L98.2747253,5 L98.2747253,8.13965182 L98.2747253,11.2793028 L91.5524842,11.3010738 C87.8552513,11.3130472 84.8000315,11.3534384 84.763107,11.3908313 C84.7261824,11.428225 84.6959707,13.09084 84.6959707,15.0855325 C84.6959707,18.2205054 84.7123619,18.7227351 84.8168498,18.7896054 C84.8903121,18.8366213 87.3953788,18.8674556 91.2032967,18.8682151 L97.4688645,18.8694634 L97.4688645,21.9682411 L97.4688645,25.067018 L91.1495458,25.0888705 C87.6739245,25.1008888 84.8000234,25.1413167 84.7630989,25.1787096 C84.6753648,25.2675688 84.6753648,33.5203152 84.763107,33.6091687 C84.8000315,33.6465616 88.0184381,33.6869234 91.9151216,33.6988601 L99,33.720565 L99,36.8602821 L99,40 L88,40 L77,40 L77,22.4999996 L77,22.5000004 Z" id="E" fill="#5B666F"></path>
                    <path d="M51,22.5000004 L51,5 L54.9131688,5 L58.8263385,5 L58.8476258,19.198784 C58.8663925,31.7157674 58.8835533,33.4067308 58.9925094,33.4749246 C59.0678351,33.5220693 61.8272522,33.5527681 66.0580524,33.5535302 L73,33.5547784 L73,36.7773892 L73,40 L62,40 L51,40 L51,22.4999996 L51,22.5000004 Z" id="L" fill="#5B666F"></path>
                    <path d="M33.2514683,43.4272701 C30.927183,40.5802499 20.6459182,27.8404551 20.5857053,27.7327775 C20.5209037,27.616894 21.0670702,27.1415028 23.9565082,24.7987837 C25.8529827,23.2611471 27.4702029,21.9463277 27.5503315,21.8769619 C27.7389276,21.7136984 27.7169629,21.6913832 29.3631593,23.7187393 C30.0812819,24.6031354 30.7153597,25.3415365 30.7722203,25.3596297 C30.9129658,25.4044145 31.1685579,24.800703 31.406307,23.8619119 C32.1893153,20.7700699 31.5160753,17.4887485 29.5491988,14.8105052 C27.4805177,11.993639 24.1953721,10.3142424 20.7538488,10.3142424 C16.3025717,10.3142424 12.3724769,13.1056709 10.8504708,17.3483151 C10.1004668,19.438976 10.081532,21.980371 10.7991715,24.2336161 C11.0732928,25.0943009 11.8958206,26.6736955 12.4593779,27.421495 C13.1542039,28.3434795 14.4147408,29.5494091 15.3508095,30.1876682 C17.0432988,31.3416943 19.0196268,31.9989622 20.7971557,31.9989622 L21.2119661,31.9989622 L24.7790695,36.4102754 C26.7409763,38.8364973 28.3662958,40.8741143 28.3908899,40.9383124 C28.4758789,41.1601594 26.1627269,41.8162862 24.2628569,42.1092318 C23.1089498,42.2871547 19.9629241,42.3108365 18.8361351,42.1500808 C14.7596894,41.568507 11.0508359,39.9835811 7.94452732,37.4957073 C4.41182609,34.6663315 1.79305499,30.5697118 0.634853823,26.0609721 C0.153934472,24.1888093 0,22.9033821 0,20.7596455 C0,18.6739333 0.140590449,17.4495989 0.591335594,15.609995 C1.7200921,11.0032623 4.38214722,6.96771499 8.18995714,4.0908521 C10.972377,1.98868873 14.2163178,0.663479303 17.9384818,0.108400108 C18.8968401,-0.0345174076 22.2539791,-0.0366173206 23.2427964,0.105081444 C25.8084648,0.472748509 27.8420027,1.09572707 30.0976029,2.20506479 C32.1666087,3.22263246 33.8277079,4.39922543 35.5139437,6.04157977 C39.0296761,9.46582108 41.1852589,13.7855556 41.8590448,18.7570028 C42.0470191,20.1439533 42.0469783,22.8487141 41.8589632,24.2293329 C41.3959985,27.6289164 40.1557527,30.8771484 38.32167,33.4935869 C38.0763308,33.84358 37.8949069,34.180341 37.918507,34.2419439 C37.9421072,34.3035477 38.6446979,35.2046376 39.4798181,36.2443676 C40.3149392,37.2840975 40.9797559,38.1647115 40.9571873,38.2012879 C40.9032261,38.2887453 33.9069249,43.9663167 33.8122837,43.9994527 C33.77221,44.0134835 33.5198438,43.7560009 33.25147,43.4272693 L33.2514683,43.4272701 Z" id="Q" fill="#1999D4"></path>
                </g>
            </g>
            <text id="404" mask="url(#mask-3)" transform="translate(76.648438, 61.484375) rotate(-33.000000) translate(-76.648438, -61.484375) " font-family="Impact" font-size="144" font-style="condensed" font-weight="700" fill="#F79B26" fill-opacity="0.252236187">
                <tspan x="-34.3515625" y="118.984375">404</tspan>
            </text>
            <text id="WHOOPS!" mask="url(#mask-3)" font-family="DINCondensed-Bold, DIN Condensed" font-size="72" font-style="condensed" font-weight="bold" fill="#A0A0A0">
                <tspan x="156" y="128">WHOOPS!</tspan>
            </text>
        </g>
    </g>
</svg>